<!-- Generator: Adobe Illustrator 25.2.3, SVG Export Plug-In . SVG Version: 6.00 Build 0)  -->
<svg version="1.1" id="Camada_1" xmlns="http://www.w3.org/2000/svg" xmlns:xlink="http://www.w3.org/1999/xlink" x="0px" y="0px" viewBox="0 0 150 150" style="enable-background:new 0 0 150 150;" xml:space="preserve" width="150" height="150">
<style type="text/css">
	.st0{fill:#0C4DA2;}
</style>
<g>
	<path class="st0" d="M55.93,104.52c-3.53-0.61-7.69-0.93-12.04-0.93c-3.64,0-6.18,0.23-6.2,0.23l-5.1,0.46l0-55.96h-4.86v60.85   h41.16C65.57,107.47,60.74,105.35,55.93,104.52z" />
	<path class="st0" d="M102.62,113.85v14.51c0,2.32-1.71,4.21-4.03,4.21H50.84c-2.32,0-4.39-1.89-4.39-4.21v-14.51h-4.68v14.51   c0,4.9,4.17,8.89,9.07,8.89h47.74c4.9,0,8.71-3.99,8.71-8.89v-14.51H102.62z" />
	<path class="st0" d="M117.6,48.32v55.97l-5.02-0.47c-0.02,0-2.51-0.23-6.15-0.23c-4.35,0-8.49,0.32-12.02,0.93   c-4.84,0.83-9.64,2.95-12.94,4.65h40.81V48.32H117.6z" />
	<path class="st0" d="M91.3,40.46c-6.03,1.33-11.15,3.39-13.96,4.76v60.76c3.74-1.92,9.73-4.96,16.11-6.07   c9.6-1.66,19.46-0.75,19.46-0.75V38.92C112.91,38.92,100.98,38.31,91.3,40.46z" />
	<path class="st0" d="M46.45,34.28V21.64c0-2.32,2.07-4.21,4.39-4.21c0,0,6.75,0,7.54,0c0.79,0,0.89,0.31,0.89,0.47   c0,1.29,1.05,2.34,2.34,2.34h26.21c1.29,0,2.34-1.05,2.34-2.34c0-0.16,0.29-0.47,0.89-0.47c0.6,0,7.54,0,7.54,0   c2.32,0,4.03,1.89,4.03,4.21v12.69c1.87-0.09,3.74-0.14,4.68-0.16V21.64c0-4.9-3.81-8.89-8.71-8.89H50.84   c-4.9,0-9.07,3.99-9.07,8.89v12.52C43.64,34.17,44.57,34.2,46.45,34.28z" />
	<path class="st0" d="M72.66,45.22c-2.81-1.37-7.93-3.43-13.96-4.76c-9.68-2.14-21.62-1.54-21.62-1.54v60.24   c0,0,9.86-0.9,19.46,0.75c6.38,1.1,12.37,4.15,16.11,6.07V45.22z" />
</g>
</svg>