<svg width="60" height="60" data-name="Layer 2" xmlns="http://www.w3.org/2000/svg" viewBox="0 0 60 60">
  <path fill="#e57231" d="M45 52H15v6h30z"/>
  <path fill="#fcc02d" d="M13.92 22v-.01a17.267 17.267 0 0 1-4.84-6.26C6.39 10.23 6.5 5.25 8.29 4.21A1.626 1.626 0 0 1 9.12 4a2.6 2.6 0 0 1 .79.13A7.83 7.83 0 0 1 13 6.24V4c0-.14.01-.27.02-.41a7.944 7.944 0 0 0-2.53-1.38A4.807 4.807 0 0 0 9.12 2a3.573 3.573 0 0 0-1.83.48c-3.08 1.78-3.08 7.86 0 14.13 2.07 4.23 5.04 7.37 7.76 8.2a3.056 3.056 0 0 0 .41.1A13.732 13.732 0 0 1 13.92 22zm20.6 18H34v-.52a1.48 1.48 0 0 0-1-1.39V31h-6v7.09a1.48 1.48 0 0 0-1 1.39V40h-.52A1.49 1.49 0 0 0 24 41.48V42h12v-.52A1.49 1.49 0 0 0 34.52 40zM41 45.48A1.49 1.49 0 0 0 39.52 44H20.48A1.49 1.49 0 0 0 19 45.48V50h22zm3.68-42.56A2 2 0 0 0 43 2H17a2 2 0 0 0-1.68.92A1.906 1.906 0 0 0 15 4v13a11.94 11.94 0 0 0 .58 3.7 12.18 12.18 0 0 0 2.26 4.04 11.57 11.57 0 0 0 1.49 1.48A11.9 11.9 0 0 0 27 29h6a11.9 11.9 0 0 0 7.67-2.78 12.1 12.1 0 0 0 2.71-3.21 11.425 11.425 0 0 0 1.04-2.31A11.94 11.94 0 0 0 45 17V4a1.906 1.906 0 0 0-.32-1.08zm8.03-.44A3.573 3.573 0 0 0 50.88 2a4.807 4.807 0 0 0-1.37.21 7.944 7.944 0 0 0-2.53 1.38c.01.14.02.27.02.41v2.24a7.83 7.83 0 0 1 3.09-2.11 2.6 2.6 0 0 1 .79-.13 1.626 1.626 0 0 1 .83.21c1.79 1.04 1.9 6.02-.79 11.52a17.267 17.267 0 0 1-4.84 6.26V22a13.732 13.732 0 0 1-1.54 2.91 3.056 3.056 0 0 0 .41-.1c2.72-.83 5.69-3.97 7.76-8.2 3.08-6.27 3.08-12.35 0-14.13z"/>
  <path opacity=".4" fill="#fff" d="M33 37.05v1.04a1.48 1.48 0 0 1 1 1.39V40h.52A1.49 1.49 0 0 1 36 41.48V42h-2v-.52A1.49 1.49 0 0 0 32.52 40H32v-.52a1.48 1.48 0 0 0-1-1.39V33h2zM44.68 2.92A1.906 1.906 0 0 1 45 4v13c0 .386-.025.763-.06 1.14a11.847 11.847 0 0 1-.52 2.56 12.18 12.18 0 0 1-2.26 4.04 11.57 11.57 0 0 1-1.49 1.48A11.9 11.9 0 0 1 33 29h-2a11.9 11.9 0 0 0 7.67-2.78 12.1 12.1 0 0 0 2.71-3.21 11.425 11.425 0 0 0 1.04-2.31A11.94 11.94 0 0 0 43 17V4a1.906 1.906 0 0 0-.32-1.08A2 2 0 0 0 41 2h2a2 2 0 0 1 1.68.92zM39 45.48A1.49 1.49 0 0 0 37.52 44h2A1.49 1.49 0 0 1 41 45.48V50h-2zM43 52h2v6h-2z"/>
  <path opacity=".1" d="M11 4.62a9.957 9.957 0 0 1 2 1.62s.01-2.51.02-2.65L13 3.575a8.586 8.586 0 0 0-2-1.183zM15.46 24.91A13.732 13.732 0 0 1 13.92 22v-.01a13.42 13.42 0 0 1-2.72-2.778 11.8 11.8 0 0 0 .38 1.488 11.425 11.425 0 0 0 1.04 2.31c.174.3.362.613.565.9a7.234 7.234 0 0 0 1.865.9 3.056 3.056 0 0 0 .41.1z"/>
  <path fill="#494c4e" d="M53.72.75A5.558 5.558 0 0 0 50.88 0a6.7 6.7 0 0 0-1.95.3 9.345 9.345 0 0 0-2.69 1.36A3.96 3.96 0 0 0 43 0H17a3.96 3.96 0 0 0-3.24 1.66A9.345 9.345 0 0 0 11.07.3 6.7 6.7 0 0 0 9.12 0a5.558 5.558 0 0 0-2.84.75c-4.05 2.35-4.39 9.39-.79 16.74 2.34 4.78 5.7 8.23 8.98 9.23a6.7 6.7 0 0 0 1.95.3 6.49 6.49 0 0 0 .77-.05A14.02 14.02 0 0 0 25 30.86v6.19a3.7 3.7 0 0 0-.77 1.18A3.49 3.49 0 0 0 22 41.48V42h-1.52A3.483 3.483 0 0 0 17 45.48V50h-3a1 1 0 0 0-1 1v8a1 1 0 0 0 1 1h32a1 1 0 0 0 1-1v-8a1 1 0 0 0-1-1h-3v-4.52A3.483 3.483 0 0 0 39.52 42H38v-.52a3.49 3.49 0 0 0-2.23-3.25 3.7 3.7 0 0 0-.77-1.18v-6.19a14.02 14.02 0 0 0 7.81-3.89 6.49 6.49 0 0 0 .77.05 6.7 6.7 0 0 0 1.95-.3c3.28-1 6.64-4.45 8.98-9.23 3.6-7.35 3.26-14.39-.79-16.74zM13.07 18.36a18.677 18.677 0 0 1-2.19-3.51c-2.2-4.48-2.06-7.94-1.61-8.82.02 0 .04.01.06.01A8.584 8.584 0 0 1 13 9.36V17a12.266 12.266 0 0 0 .07 1.36zm1.98 6.45c-2.72-.83-5.69-3.97-7.76-8.2-3.08-6.27-3.08-12.35 0-14.13A3.573 3.573 0 0 1 9.12 2a4.807 4.807 0 0 1 1.37.21 7.944 7.944 0 0 1 2.53 1.38c-.01.14-.02.27-.02.41v2.24a7.83 7.83 0 0 0-3.09-2.11A2.6 2.6 0 0 0 9.12 4a1.626 1.626 0 0 0-.83.21c-1.79 1.04-1.9 6.02.79 11.52a17.2 17.2 0 0 0 4.82 6.25l.02.02a13.732 13.732 0 0 0 1.54 2.91 3.056 3.056 0 0 1-.41-.1zM45 52v6H15v-6zm-5.48-8A1.49 1.49 0 0 1 41 45.48V50H19v-4.52A1.49 1.49 0 0 1 20.48 44zM36 41.48V42H24v-.52A1.49 1.49 0 0 1 25.48 40H26v-.52a1.48 1.48 0 0 1 1-1.39V31h6v7.09a1.48 1.48 0 0 1 1 1.39V40h.52A1.49 1.49 0 0 1 36 41.48zm7.38-18.47a12.1 12.1 0 0 1-2.71 3.21A11.9 11.9 0 0 1 33 29h-6a11.9 11.9 0 0 1-7.67-2.78 12.1 12.1 0 0 1-2.71-3.21 11.425 11.425 0 0 1-1.04-2.31A11.94 11.94 0 0 1 15 17V4a1.906 1.906 0 0 1 .32-1.08A2 2 0 0 1 17 2h26a2 2 0 0 1 1.68.92A1.906 1.906 0 0 1 45 4v13a11.94 11.94 0 0 1-.58 3.7 11.425 11.425 0 0 1-1.04 2.31zm9.33-6.4c-2.07 4.23-5.04 7.37-7.76 8.2a3.056 3.056 0 0 1-.41.1A13.732 13.732 0 0 0 46.08 22v-.01a17.267 17.267 0 0 0 4.84-6.26c2.69-5.5 2.58-10.48.79-11.52a1.626 1.626 0 0 0-.83-.21 2.6 2.6 0 0 0-.79.13A7.83 7.83 0 0 0 47 6.24V4c0-.14-.01-.27-.02-.41a7.944 7.944 0 0 1 2.53-1.38A4.807 4.807 0 0 1 50.88 2a3.573 3.573 0 0 1 1.83.48c3.08 1.78 3.08 7.86 0 14.13zm-5.78 1.75A12.266 12.266 0 0 0 47 17V9.36a8.584 8.584 0 0 1 3.67-3.32c.02 0 .04-.01.06-.01.45.88.59 4.34-1.61 8.82a18.677 18.677 0 0 1-2.19 3.51z"/>
  <path opacity=".1" d="M27.01 31H33v2h-5.99zM49.014 4.628a11.823 11.823 0 0 0-2.02 1.626l-.014-2.68.038-.03a8.52 8.52 0 0 1 2-1.17zM44.54 24.922a13.854 13.854 0 0 0 1.54-2.932 13.337 13.337 0 0 0 2.72-2.767 11.8 11.8 0 0 1-.375 1.488 11.425 11.425 0 0 1-1.04 2.31q-.26.455-.565.886a7.48 7.48 0 0 1-1.865.915 3.056 3.056 0 0 1-.415.102z"/>
  <path fill="#5c5a5c" d="M35.67 9.168c-1.41-.06-3-.13-4.83-2.72a.935.935 0 0 0-.16-.18.992.992 0 0 0-1.36 0 .935.935 0 0 0-.16.18c-1.83 2.59-3.42 2.66-4.83 2.72-1.82.08-3.33.43-3.33 3.838C21 18.853 27.25 25 30 25s9-6.147 9-11.994c0-3.406-1.51-3.758-3.33-3.838zM30 23c-1.25 0-7-4.857-7-9.995 0-1.78.11-1.78 1.42-1.84A6.98 6.98 0 0 0 30 8.62a6.98 6.98 0 0 0 5.58 2.548c1.31.06 1.42.06 1.42 1.84C37 18.143 31.25 23 30 23z"/>
  <path opacity=".1" d="M24.43 11.166a6.98 6.98 0 0 0 5.58-2.55v2.73a8.664 8.664 0 0 1-5 1.793c.09 3.41 3.56 6.844 5 7.726V23c-1.25 0-7-4.857-7-9.995 0-1.78.11-1.78 1.42-1.84z"/>
  <path fill="#494c4e" d="M40 56H20a1 1 0 0 1 0-2h20a1 1 0 0 1 0 2z"/>
  <path opacity=".4" fill="#fff" d="M35.59 11.166a6.98 6.98 0 0 1-5.58-2.55v2.73a8.664 8.664 0 0 0 5 1.793c-.09 3.41-3.562 6.844-5 7.726V23c1.25 0 7-4.857 7-9.995 0-1.78-.11-1.78-1.42-1.84z"/>
</svg>
