<!-- Generator: Adobe Illustrator 25.2.3, SVG Export Plug-In . SVG Version: 6.00 Build 0)  -->
<svg version="1.1" id="Camada_1" xmlns="http://www.w3.org/2000/svg" xmlns:xlink="http://www.w3.org/1999/xlink" x="0px" y="0px" viewBox="0 0 150 150" style="enable-background:new 0 0 150 150;" xml:space="preserve" width="150" height="150">
<style type="text/css">
	.st0{fill:#0C4DA2;}
</style>
<g>
	<path class="st0" d="M108.73,12.75H34c-4.8,0-9.01,3.93-9.01,8.73v1.94c0,4.8,4.2,8.73,9.01,8.73h78.61c0,0-3.25-4.47-4.11-9.88   C107.64,16.86,108.73,12.75,108.73,12.75z" />
	<path class="st0" d="M33.73,37.01c-2.91,0-5.82-1.2-8.73-3.19c0,22.54,0,74.26,0,78.6c0,5.08,1.94,9.21,8.73,9.89V37.01z" />
	<path class="st0" d="M78.81,79.53c-0.04-2.31,1.29-4.42,3.39-5.39c0.78-0.36,1.59-0.53,2.44-0.53c1.43,0,2.66,0.52,3.73,1.47   l23.97,21.38V37.01H38.58v85.41c7.76,0,24.96,0,40.96,0L78.81,79.53z" />
	<path class="st0" d="M108.66,137.25c-0.34,0-0.68-0.18-0.85-0.51l-9.38-17.36l-12.21,12.62c-0.27,0.28-0.69,0.37-1.05,0.23   c-0.36-0.14-0.61-0.49-0.61-0.89l-0.88-51.9c-0.01-0.39,0.22-0.74,0.56-0.9c0.35-0.16,0.76-0.1,1.05,0.16l39.4,34.94   c0.3,0.27,0.41,0.69,0.27,1.06c-0.14,0.37-0.49,0.63-0.89,0.63l-16.44,0.28l8.88,16.44c0.12,0.23,0.15,0.49,0.08,0.74   c-0.07,0.25-0.24,0.45-0.47,0.58l-6.98,3.76C108.97,137.22,108.82,137.25,108.66,137.25z" />
</g>
</svg>