<svg width="60" height="60" xmlns="http://www.w3.org/2000/svg" viewBox="0 0 60 60">
  <path fill="#5554ab" d="M31 36a15.044 15.044 0 0 0-15-15A15.044 15.044 0 0 0 1 36z"/>
  <path opacity=".4" fill="#fff" d="M16 21c-.506 0-1.006.027-1.5.076A15.052 15.052 0 0 1 28 36h3a15.044 15.044 0 0 0-15-15z"/>
  <circle fill="#9e9ed7" cx="16" cy="13.5" r="7.5"/>
  <circle fill="#9e9ed7" cx="44" cy="13.5" r="7.5"/>
  <path fill="#5554ab" d="M59 36a15.044 15.044 0 0 0-15-15 15.044 15.044 0 0 0-15 15z"/>
  <path opacity=".4" fill="#fff" d="M16 6a7.554 7.554 0 0 0-1.5.15 7.5 7.5 0 0 1 0 14.7A7.5 7.5 0 1 0 16 6zM44 21c-.506 0-1.006.027-1.5.076A15.052 15.052 0 0 1 56 36h3a15.044 15.044 0 0 0-15-15z"/>
  <path opacity=".4" fill="#fff" d="M44 6a7.554 7.554 0 0 0-1.5.15 7.5 7.5 0 0 1 0 14.7A7.5 7.5 0 1 0 44 6z"/>
  <path fill="#5d5bc0" d="M50 54a20.06 20.06 0 0 0-20-20 20.06 20.06 0 0 0-20 20z"/>
  <path opacity=".4" fill="#fff" d="M30 34c-.675 0-1.342.036-2 .1A20.07 20.07 0 0 1 46 54h4a20.06 20.06 0 0 0-20-20z"/>
  <circle fill="#9e9ed7" cx="30" cy="24" r="10"/>
  <path opacity=".4" fill="#fff" d="M30 14a10.072 10.072 0 0 0-2 .2 10 10 0 0 1 0 19.6A10 10 0 1 0 30 14z"/>
  <path fill="#494c4e" d="M48.54 20.68a8.5 8.5 0 1 0-12.98-6.17 10.99 10.99 0 0 0-11.12 0 8.5 8.5 0 1 0-12.98 6.17A16.078 16.078 0 0 0 0 36a1.007 1.007 0 0 0 .29.71A1.033 1.033 0 0 0 1 37h16.74A21.063 21.063 0 0 0 9 54a1.007 1.007 0 0 0 .29.71A1.033 1.033 0 0 0 10 55h40a1.033 1.033 0 0 0 .71-.29A1.007 1.007 0 0 0 51 54a21.063 21.063 0 0 0-8.74-17H59a1.033 1.033 0 0 0 .71-.29A1.007 1.007 0 0 0 60 36a16.078 16.078 0 0 0-11.46-15.32zM44 7a6.5 6.5 0 1 1-6.5 6.5A6.513 6.513 0 0 1 44 7zm-14 8a9 9 0 0 1 8.48 6.01 8.4 8.4 0 0 1 .46 1.95 9.01 9.01 0 0 1-7.27 9.89 8.45 8.45 0 0 1-1.34.14.014.014 0 0 1 0 .02C30.22 33 30.11 33 30 33s-.22 0-.33.01a.014.014 0 0 1 0-.02 8.45 8.45 0 0 1-1.34-.14 9.01 9.01 0 0 1-7.27-9.89 8.4 8.4 0 0 1 .46-1.95A9 9 0 0 1 30 15zM9.5 13.5A6.5 6.5 0 1 1 16 20a6.513 6.513 0 0 1-6.5-6.5zM2.04 35a13.963 13.963 0 0 1 17.08-12.64 11.033 11.033 0 0 0 5.65 11.32A20.6 20.6 0 0 0 21.12 35zm46.93 18H11.03a19.088 19.088 0 0 1 10.56-16 18.847 18.847 0 0 1 6.44-1.89 17.548 17.548 0 0 1 1.93-.11h.08a17.548 17.548 0 0 1 1.93.11A18.847 18.847 0 0 1 38.41 37a19.088 19.088 0 0 1 10.56 16zM38.88 35a20.6 20.6 0 0 0-3.65-1.32 11.033 11.033 0 0 0 5.65-11.32A13.963 13.963 0 0 1 57.96 35z"/>
</svg>
