<!-- Generator: Adobe Illustrator 25.2.3, SVG Export Plug-In . SVG Version: 6.00 Build 0)  -->
<svg version="1.1" id="Camada_1" xmlns="http://www.w3.org/2000/svg" xmlns:xlink="http://www.w3.org/1999/xlink" x="0px" y="0px" viewBox="0 0 150 150" style="enable-background:new 0 0 150 150;" xml:space="preserve" width="150" height="150">
<style type="text/css">
	.st0{fill:#0C4DA2;}
</style>
<g>
	<path class="st0" d="M94.41,134.61c-2.38-0.41-5.17-0.71-8.08-0.71c-2.42,0-4.1,0.11-4.11,0.11l-5.82,0.49l-0.23-5.65V94.13h-3.08   v43.13h27.53C98.8,136.23,96.57,134.98,94.41,134.61z" />
	<path class="st0" d="M138.81,94.13v40.37l-5.39-0.53c-0.01,0-1.57-0.15-4-0.15c-2.91,0-5.65,0.39-8.03,0.8   c-2.15,0.37-4.33,1.61-6.15,2.64h26.65V94.13H138.81z" />
	<path class="st0" d="M104.93,91.72c-2.05-0.91-5.05-2.04-8.56-2.82c-6.81-1.51-15.06-1.08-15.06-1.08v41.03   c0,0,6.79-0.64,13.54,0.53c3.85,0.66,8.03,2.76,10.08,4.44V91.72z" />
	<path class="st0" d="M67.96,119.8V88.99h8.22v-6.05l5.09-0.25c0.05,0,1.34-0.06,3.14-0.06c3.52,0,8.76,0.22,13.45,1.26   c4.01,0.89,7.42,2.19,9.55,3.13l0.51,0.22l0.5-0.22c2.13-0.94,5.3-2.25,9.31-3.13c0.92-0.2,2.6-0.37,2.6-0.51V66.4h16.61   L72.49,12.75L8.11,66.4h13.64v53.4H67.96z" />
	<path class="st0" d="M118.62,88.9c-3.51,0.78-6.51,1.91-8.56,2.82v42.1c3.08-1.68,6.23-3.77,10.08-4.44   c6.75-1.16,13.54-0.53,13.54-0.53V87.82C133.68,87.82,125.43,87.4,118.62,88.9z" />
</g>
</svg>