<!-- Generator: Adobe Illustrator 25.2.3, SVG Export Plug-In . SVG Version: 6.00 Build 0)  -->
<svg version="1.1" id="Camada_1" xmlns="http://www.w3.org/2000/svg" xmlns:xlink="http://www.w3.org/1999/xlink" x="0px" y="0px" viewBox="0 0 150 150" style="enable-background:new 0 0 150 150;" xml:space="preserve" width="150" height="150">
<style type="text/css">
	.st0{fill:#0C4DA2;}
</style>
<g>
	<path class="st0" d="M35.83,51.4c0.47,0.47,1.11,0.6,1.77,0.6c0.03,0,0.05,0,0.08,0c0.69,0,1.34-0.2,1.8-0.72l7.41-8.31   c0.91-1.04,0.81-2.61-0.23-3.52c-1.04-0.91-2.62-0.81-3.53,0.23l-5.65,6.43l-2.42-2.43c-0.98-0.98-2.56-0.99-3.54-0.01   c-0.98,0.98-0.98,2.52,0,3.5L35.83,51.4z" />
	<path class="st0" d="M54.19,49h64c1.38,0,2.5-1.12,2.5-2.5s-1.12-2.5-2.5-2.5h-64c-1.38,0-2.5,1.12-2.5,2.5S52.81,49,54.19,49z" />
	<path class="st0" d="M35.83,68.4c0.47,0.47,1.11,0.6,1.77,0.6c0.03,0,0.05,0,0.08,0c0.69,0,1.34-0.2,1.8-0.72l7.41-8.31   c0.91-1.04,0.81-2.61-0.23-3.52c-1.04-0.91-2.62-0.81-3.53,0.23l-5.65,6.43l-2.42-2.43c-0.98-0.98-2.56-0.99-3.54-0.01   c-0.98,0.98-0.98,2.52,0,3.5L35.83,68.4z" />
	<path class="st0" d="M54.19,66h64c1.38,0,2.5-1.12,2.5-2.5c0-1.38-1.12-2.5-2.5-2.5h-64c-1.38,0-2.5,1.12-2.5,2.5   C51.69,64.88,52.81,66,54.19,66z" />
	<path class="st0" d="M35.83,85.4c0.47,0.47,1.11,0.6,1.77,0.6c0.03,0,0.05,0,0.08,0c0.69,0,1.34-0.2,1.8-0.72l7.41-8.31   c0.91-1.04,0.81-2.61-0.23-3.52c-1.04-0.91-2.62-0.81-3.53,0.23l-5.65,6.43l-2.42-2.43c-0.98-0.98-2.56-0.99-3.54-0.01   c-0.98,0.98-0.98,2.52,0,3.5L35.83,85.4z" />
	<path class="st0" d="M54.19,83h64c1.38,0,2.5-1.12,2.5-2.5s-1.12-2.5-2.5-2.5h-64c-1.38,0-2.5,1.12-2.5,2.5S52.81,83,54.19,83z" />
	<path class="st0" d="M133.19,22h-116C12.24,22,8,25.72,8,30.67v73c0,4.95,4.24,9.33,9.19,9.33H63v10h-6.81   c-1.38,0-2.5,1.12-2.5,2.5s1.12,2.5,2.5,2.5h38c1.38,0,2.5-1.12,2.5-2.5s-1.12-2.5-2.5-2.5H87v-10h46.19   c4.95,0,8.81-4.38,8.81-9.33v-73C142,25.72,138.14,22,133.19,22z M75.19,25.39c0.71,0,1.28,0.57,1.28,1.28   c0,0.71-0.57,1.28-1.28,1.28c-0.71,0-1.28-0.57-1.28-1.28C73.91,25.96,74.49,25.39,75.19,25.39z M75.19,106.74   c-1.7,0-3.07-1.38-3.07-3.07c0-1.7,1.38-3.07,3.07-3.07c1.7,0,3.07,1.38,3.07,3.07C78.27,105.37,76.89,106.74,75.19,106.74z    M133,96H17V31h116V96z" />
</g>
</svg>