<!-- Generator: Adobe Illustrator 25.2.3, SVG Export Plug-In . SVG Version: 6.00 Build 0)  -->
<svg version="1.1" id="Camada_1" xmlns="http://www.w3.org/2000/svg" xmlns:xlink="http://www.w3.org/1999/xlink" x="0px" y="0px" viewBox="0 0 252.91 81.35" style="enable-background:new 0 0 252.91 81.35;" xml:space="preserve" width="252.91" height="81.35">
<style type="text/css">
	.st0{fill:#008BD2;}
	.st1{fill:#27348B;}
	.st2{fill:#FFFFFF;}
	.st3{clip-path:url(#SVGID_2_);fill:#27348B;}
	.st4{clip-path:url(#SVGID_2_);}
	.st5{clip-path:url(#SVGID_4_);fill:#27348B;}
	.st6{clip-path:url(#SVGID_4_);fill:#008BD2;}
	.st7{clip-path:url(#SVGID_4_);fill:#FFFFFF;}
	.st8{clip-path:url(#SVGID_6_);fill:#FFFFFF;}
	.st9{clip-path:url(#SVGID_6_);fill-rule:evenodd;clip-rule:evenodd;fill:#005492;}
	.st10{clip-path:url(#SVGID_6_);fill-rule:evenodd;clip-rule:evenodd;fill:#3282C1;}
	.st11{clip-path:url(#SVGID_6_);}
	.st12{clip-path:url(#SVGID_8_);fill-rule:evenodd;clip-rule:evenodd;fill:#FFFFFF;}
	.st13{clip-path:url(#SVGID_8_);fill:#FFFFFF;}
	.st14{clip-path:url(#SVGID_10_);fill:#27348B;}
	.st15{clip-path:url(#SVGID_10_);fill:#008BD2;}
	.st16{clip-path:url(#SVGID_10_);}
	.st17{clip-path:url(#SVGID_12_);fill:#FFFFFF;}
	.st18{clip-path:url(#SVGID_12_);fill:#27348B;}
	.st19{clip-path:url(#SVGID_14_);}
	.st20{clip-path:url(#SVGID_16_);fill:#8A1002;}
	.st21{clip-path:url(#SVGID_16_);fill:#E30613;}
	.st22{clip-path:url(#SVGID_16_);fill:#FFFFFF;}
	.st23{clip-path:url(#SVGID_18_);}
	.st24{clip-path:url(#SVGID_20_);fill:#8E1913;}
	.st25{clip-path:url(#SVGID_20_);fill:#E41018;}
	.st26{clip-path:url(#SVGID_20_);fill:#FFFFFF;}
	.st27{clip-path:url(#SVGID_22_);fill:#8A1002;}
	.st28{clip-path:url(#SVGID_22_);fill:#E30613;}
	.st29{clip-path:url(#SVGID_22_);}
	.st30{clip-path:url(#SVGID_24_);fill:#FFFFFF;}
	.st31{clip-path:url(#SVGID_24_);fill:#8A1002;}
	.st32{clip-path:url(#SVGID_26_);fill:#27348B;}
	.st33{clip-path:url(#SVGID_26_);fill:#008BD2;}
	.st34{clip-path:url(#SVGID_26_);fill:#FFFFFF;}
	.st35{clip-path:url(#SVGID_26_);}
	.st36{clip-path:url(#SVGID_28_);fill:#FFFFFF;}
	.st37{clip-path:url(#SVGID_28_);fill:#27348B;}
</style>
<g id="MARCA_-_BASE__x28_CMYK_x29__1_">
	<g>
		<defs>
			<rect id="SVGID_25_" y="0" width="252.91" height="81.35" />
		</defs>
		<clipPath id="SVGID_2_">
			<use xlink:href="#SVGID_25_" style="overflow:visible;" />
		</clipPath>
		<rect x="53.33" y="0" class="st3" width="199.58" height="57.96" />
		<rect x="0" y="0" style="clip-path:url(#SVGID_2_);fill:#008BD2;" width="53.33" height="57.96" />
		<polygon style="clip-path:url(#SVGID_2_);fill:#FFFFFF;" points="106.38,6.8 135.34,6.8 135.34,16.7 118.49,16.7 118.49,24.99     134.34,24.99 134.34,34.75 118.49,34.75 118.49,51.88 106.38,51.88   " />
		<rect x="142.26" y="6.8" style="clip-path:url(#SVGID_2_);fill:#FFFFFF;" width="12.11" height="45.08" />
		<g class="st4">
			<defs>
				<rect id="SVGID_27_" y="0" width="252.91" height="81.35" />
			</defs>
			<clipPath id="SVGID_4_">
				<use xlink:href="#SVGID_27_" style="overflow:visible;" />
			</clipPath>
			<path class="st7" d="M196.27,50.67c-1.67,0.87-5.95,1.87-11.3,1.87c-16.85,0-24.28-10.5-24.28-22.47     c0-15.85,11.64-23.94,25.08-23.94c5.15,0,9.36,1,11.24,1.94l-2.34,9.56c-1.94-0.8-4.75-1.61-8.36-1.61     c-6.88,0-12.91,4.08-12.91,13.24c0,8.16,4.88,13.24,13.18,13.24c2.88,0,6.15-0.53,8.03-1.27L196.27,50.67z" />
			<path class="st7" d="M202.48,7.47c3.41-0.54,8.56-1,14.58-1c6.89,0,11.84,0.94,15.25,3.55c2.87,2.21,4.41,5.42,4.41,9.76     c0,5.62-4.21,9.56-7.69,10.9v0.2c2.94,1.34,4.62,4.21,5.75,8.09c1.34,4.61,2.81,11.17,3.68,12.91h-12.31     c-0.67-1.34-1.87-4.81-3.14-10.43c-1.2-5.35-2.88-6.49-6.62-6.49h-1.94v16.92h-11.97V7.47z M214.45,26.26h3.14     c4.55,0,7.15-2.21,7.15-5.55c0-3.34-2.21-5.28-6.22-5.28c-2.27,0-3.48,0.13-4.08,0.27V26.26z" />
			<path class="st7" d="M53.33,57.96c-0.52,0-0.51-0.46-0.51-0.46c-0.82-9.35-1.09-18.75-0.88-28.13c0.18-8,0.63-15.99,0.65-24     c0-0.07-0.06-0.14-0.14-0.14h-4.12c-0.08,0-0.14-0.06-0.14-0.14V3.79c0-0.08,0.06-0.14,0.14-0.14h4.12     c0.08,0,0.14-0.06,0.14-0.14V0.13c0-0.07,0.06-0.13,0.14-0.13h1.21c0.08,0,0.14,0.06,0.14,0.13v3.39c0,0.08,0.06,0.14,0.14,0.14     h4.12c0.08,0,0.14,0.06,0.14,0.14V5.1c0,0.08-0.06,0.14-0.14,0.14h-4.12c-0.08,0-0.14,0.06-0.14,0.14c0.01,8.01,0.47,16,0.65,24     c0.21,9.39-0.06,18.78-0.88,28.13C53.84,57.5,53.84,57.96,53.33,57.96" />
			<path class="st7" d="M60.19,9.84c-0.94,4.16-1.88,8.46-1.9,12.74c-0.03,5.36,1.42,10.01,3.97,14.69     c0.01,0.01,0.01,0.02,0.02,0.03l8.6,18.35c0.14,0.29,0.02,0.63-0.26,0.79c-0.28,0.15-0.63,0.06-0.8-0.21L59.23,39.29     c0,0,0-0.01,0-0.01c-1.69-2.42-2.85-5.07-3.44-7.96c-1.47-7.2,0.83-15.07,3.26-21.81c0.1-0.3,0.43-0.46,0.73-0.38     C60.08,9.22,60.26,9.53,60.19,9.84" />
			<path class="st7" d="M37.96,12.43c-0.13-0.28-0.03-0.61,0.24-0.77c0.26-0.16,0.6-0.09,0.79,0.15c6.86,9.04,8.18,17.81-1.84,25.05     c-2.04,1.48-4.14,2.89-6.25,4.26c-2.3,1.5-4.63,2.96-6.97,4.39c-2.56,1.57-5.14,3.12-7.73,4.65c-0.27,0.17-0.64,0.08-0.81-0.19     c-0.17-0.27-0.11-0.63,0.15-0.82l19.68-14.33c2.59-1.89,5.06-4.25,5.96-7.43c0.61-2.14,0.43-4.36-0.06-6.5     C40.45,18.02,39.21,15.11,37.96,12.43" />
			<path class="st7" d="M41.65,10.84c-0.1-0.3,0.05-0.62,0.34-0.74c0.29-0.12,0.62,0,0.76,0.28c1.62,3.25,3.16,6.73,4.05,10.26     c0.73,2.91,1.03,5.92,0.37,8.87c-0.83,3.71-3.03,6.66-5.85,9.13c-2.64,2.31-5.31,4.59-8.02,6.81c-2.23,1.83-4.49,3.62-6.77,5.38     c-1.21,0.94-2.43,1.87-3.66,2.79c-0.25,0.19-0.61,0.16-0.81-0.08c-0.21-0.24-0.18-0.6,0.04-0.82L39.4,35.8     c2.08-2.03,4.04-4.35,4.9-7.18c0.71-2.36,0.59-4.82,0.19-7.22c-0.27-1.6-0.66-3.18-1.08-4.73     C42.88,14.72,42.27,12.77,41.65,10.84" />
			<path class="st7" d="M46.58,9.84C46.51,9.53,46.7,9.22,47,9.13c0.31-0.09,0.63,0.08,0.73,0.38c2.42,6.75,4.73,14.61,3.25,21.81     c-0.59,2.9-1.75,5.54-3.44,7.96c0,0,0,0,0,0.01L36.95,56.22c-0.17,0.27-0.52,0.36-0.8,0.21c-0.28-0.15-0.39-0.5-0.26-0.79     l8.6-18.35c0-0.01,0.01-0.02,0.02-0.03c2.55-4.68,4-9.33,3.97-14.69C48.46,18.3,47.52,14,46.58,9.84" />
			<path class="st7" d="M68.81,12.43c-1.24,2.68-2.49,5.59-3.15,8.48c-0.49,2.15-0.67,4.36-0.06,6.5c0.9,3.18,3.37,5.54,5.96,7.43     l19.68,14.33c0.26,0.19,0.33,0.55,0.15,0.82c-0.17,0.27-0.54,0.35-0.81,0.19c-2.59-1.53-5.17-3.08-7.73-4.65     c-2.34-1.44-4.67-2.9-6.97-4.39c-2.11-1.37-4.21-2.78-6.25-4.26c-10.02-7.25-8.7-16.01-1.84-25.05c0.19-0.25,0.53-0.31,0.79-0.15     C68.84,11.81,68.94,12.15,68.81,12.43" />
			<path class="st7" d="M65.12,10.84c-0.62,1.93-1.23,3.88-1.77,5.83c-0.43,1.56-0.82,3.14-1.08,4.73c-0.4,2.4-0.52,4.86,0.19,7.22     c0.86,2.83,2.82,5.14,4.9,7.18l17.31,16.94c0.22,0.22,0.25,0.58,0.04,0.82c-0.2,0.24-0.56,0.27-0.81,0.08     c-1.22-0.93-2.44-1.86-3.66-2.79c-2.28-1.76-4.54-3.55-6.77-5.38c-2.71-2.23-5.38-4.51-8.02-6.81c-2.82-2.47-5.02-5.42-5.85-9.13     c-0.66-2.95-0.37-5.96,0.36-8.87c0.89-3.53,2.43-7.01,4.05-10.26c0.14-0.28,0.47-0.4,0.76-0.28     C65.07,10.22,65.22,10.54,65.12,10.84" />
			<polygon class="st5" points="0,68.72 5.54,68.72 5.54,70.16 1.75,70.16 1.75,72.81 5.29,72.81 5.29,74.24 1.75,74.24 1.75,78.32      0,78.32    " />
			<path class="st5" d="M10.64,78.32l-0.11-0.77h-0.04c-0.43,0.54-1.15,0.93-2.05,0.93c-1.4,0-2.18-1.01-2.18-2.07     c0-1.75,1.55-2.64,4.12-2.62v-0.11c0-0.46-0.19-1.21-1.41-1.21c-0.68,0-1.39,0.21-1.87,0.51l-0.34-1.14     c0.51-0.31,1.41-0.61,2.51-0.61c2.22,0,2.86,1.41,2.86,2.92v2.51c0,0.63,0.03,1.24,0.1,1.67H10.64z M10.41,74.93     c-1.24-0.03-2.42,0.24-2.42,1.3c0,0.68,0.44,1,1,1c0.7,0,1.21-0.46,1.37-0.95c0.04-0.13,0.06-0.27,0.06-0.38V74.93z" />
			<path class="st5" d="M19.23,78.1c-0.37,0.17-1.1,0.36-1.97,0.36c-2.17,0-3.58-1.38-3.58-3.53c0-2.08,1.43-3.7,3.86-3.7     c0.64,0,1.3,0.14,1.7,0.33l-0.31,1.31c-0.28-0.13-0.7-0.27-1.32-0.27c-1.34,0-2.14,0.98-2.12,2.25c0,1.42,0.93,2.24,2.12,2.24     c0.61,0,1.04-0.13,1.38-0.27L19.23,78.1z" />
			<path class="st5" d="M26.89,76.24c0,0.83,0.03,1.51,0.06,2.08h-1.54l-0.09-1.05H25.3c-0.3,0.5-0.98,1.21-2.22,1.21     c-1.27,0-2.42-0.76-2.42-3.02v-4.07h1.75v3.78c0,1.15,0.37,1.89,1.3,1.89c0.7,0,1.15-0.5,1.34-0.94c0.06-0.16,0.1-0.34,0.1-0.54     v-4.19h1.75V76.24z" />
			<rect x="28.94" y="68.2" class="st5" width="1.77" height="10.12" />
			<path class="st5" d="M39.15,68.2v8.16c0,0.71,0.03,1.48,0.06,1.95h-1.57l-0.07-1.1h-0.03c-0.41,0.77-1.25,1.25-2.27,1.25     c-1.65,0-2.96-1.41-2.96-3.55c-0.01-2.32,1.44-3.7,3.11-3.7c0.95,0,1.64,0.4,1.95,0.91h0.03V68.2H39.15z M37.4,74.27     c0-0.14-0.01-0.31-0.04-0.46c-0.16-0.68-0.71-1.24-1.51-1.24c-1.13,0-1.75,1-1.75,2.29c0,1.27,0.63,2.19,1.74,2.19     c0.71,0,1.34-0.48,1.51-1.24c0.04-0.16,0.06-0.33,0.06-0.51V74.27z" />
			<path class="st5" d="M45.09,78.32l-0.11-0.77h-0.04c-0.43,0.54-1.15,0.93-2.05,0.93c-1.39,0-2.18-1.01-2.18-2.07     c0-1.75,1.55-2.64,4.12-2.62v-0.11c0-0.46-0.19-1.21-1.41-1.21c-0.68,0-1.4,0.21-1.87,0.51l-0.34-1.14     c0.51-0.31,1.41-0.61,2.51-0.61c2.22,0,2.86,1.41,2.86,2.92v2.51c0,0.63,0.03,1.24,0.1,1.67H45.09z M44.87,74.93     c-1.24-0.03-2.42,0.24-2.42,1.3c0,0.68,0.44,1,1,1c0.7,0,1.21-0.46,1.37-0.95c0.04-0.13,0.06-0.27,0.06-0.38V74.93z" />
			<path class="st5" d="M54.98,68.2v8.16c0,0.71,0.03,1.48,0.06,1.95h-1.57l-0.07-1.1h-0.03c-0.41,0.77-1.25,1.25-2.27,1.25     c-1.65,0-2.96-1.41-2.96-3.55c-0.01-2.32,1.44-3.7,3.11-3.7c0.95,0,1.64,0.4,1.95,0.91h0.03V68.2H54.98z M53.23,74.27     c0-0.14-0.01-0.31-0.04-0.46c-0.16-0.68-0.71-1.24-1.51-1.24c-1.13,0-1.75,1-1.75,2.29c0,1.27,0.63,2.19,1.74,2.19     c0.71,0,1.34-0.48,1.51-1.24c0.04-0.16,0.06-0.33,0.06-0.51V74.27z" />
			<path class="st5" d="M58.25,75.34c0.04,1.25,1.02,1.8,2.14,1.8c0.81,0,1.4-0.11,1.92-0.31l0.26,1.21     c-0.6,0.24-1.42,0.43-2.42,0.43c-2.25,0-3.58-1.38-3.58-3.5c0-1.92,1.17-3.73,3.39-3.73c2.25,0,2.99,1.85,2.99,3.38     c0,0.33-0.03,0.58-0.06,0.74H58.25z M61.3,74.12c0.02-0.64-0.27-1.69-1.44-1.69c-1.08,0-1.54,0.98-1.61,1.69H61.3z" />
			<path class="st5" d="M74.58,78.03c-0.41,0.21-1.32,0.43-2.48,0.43c-3.05,0-4.9-1.91-4.9-4.83c0-3.16,2.19-5.07,5.13-5.07     c1.15,0,1.98,0.24,2.34,0.43l-0.39,1.4c-0.46-0.2-1.08-0.37-1.88-0.37c-1.95,0-3.36,1.23-3.36,3.53c0,2.11,1.24,3.46,3.35,3.46     c0.71,0,1.45-0.14,1.91-0.36L74.58,78.03z" />
			<path class="st5" d="M79.93,78.32l-0.11-0.77h-0.04c-0.43,0.54-1.15,0.93-2.05,0.93c-1.4,0-2.18-1.01-2.18-2.07     c0-1.75,1.55-2.64,4.12-2.62v-0.11c0-0.46-0.19-1.21-1.41-1.21c-0.68,0-1.4,0.21-1.87,0.51l-0.34-1.14     c0.51-0.31,1.41-0.61,2.51-0.61c2.22,0,2.86,1.41,2.86,2.92v2.51c0,0.63,0.03,1.24,0.1,1.67H79.93z M79.7,74.93     c-1.24-0.03-2.42,0.24-2.42,1.3c0,0.68,0.44,1,1,1c0.7,0,1.21-0.46,1.37-0.95c0.04-0.13,0.06-0.27,0.06-0.38V74.93z" />
			<path class="st5" d="M85.34,69.4v1.98h1.67v1.31h-1.67v3.06c0,0.84,0.23,1.28,0.9,1.28c0.3,0,0.53-0.04,0.68-0.09l0.03,1.34     c-0.26,0.1-0.71,0.17-1.27,0.17c-0.64,0-1.18-0.21-1.51-0.57c-0.37-0.4-0.54-1.03-0.54-1.94v-3.26h-1v-1.31h1v-1.57L85.34,69.4z" />
			<path class="st5" d="M95,74.78c0,2.55-1.79,3.69-3.56,3.69c-1.96,0-3.48-1.35-3.48-3.58c0-2.28,1.5-3.68,3.59-3.68     C93.62,71.22,95,72.68,95,74.78 M89.77,74.86c0,1.34,0.65,2.35,1.72,2.35c1,0,1.7-0.98,1.7-2.38c0-1.08-0.48-2.32-1.68-2.32     C90.27,72.5,89.77,73.7,89.77,74.86 M93.58,68.37l-1.75,2.11h-1.21l1.24-2.11H93.58z" />
			<rect x="96.6" y="68.2" class="st5" width="1.77" height="10.12" />
			<path class="st5" d="M102.28,69.44c0,0.53-0.39,0.94-1,0.94c-0.58,0-0.97-0.41-0.97-0.94c0-0.54,0.4-0.95,0.98-0.95     C101.89,68.49,102.26,68.9,102.28,69.44 M100.41,71.38h1.77v6.94h-1.77V71.38z" />
			<path class="st5" d="M109.32,78.1c-0.37,0.17-1.1,0.36-1.97,0.36c-2.17,0-3.58-1.38-3.58-3.53c0-2.08,1.42-3.7,3.86-3.7     c0.64,0,1.3,0.14,1.7,0.33l-0.32,1.31c-0.28-0.13-0.7-0.27-1.32-0.27c-1.34,0-2.14,0.98-2.12,2.25c0,1.42,0.93,2.24,2.12,2.24     c0.61,0,1.04-0.13,1.38-0.27L109.32,78.1z" />
			<path class="st5" d="M114.67,78.32l-0.11-0.77h-0.04c-0.43,0.54-1.15,0.93-2.05,0.93c-1.4,0-2.18-1.01-2.18-2.07     c0-1.75,1.55-2.64,4.12-2.62v-0.11c0-0.46-0.19-1.21-1.41-1.21c-0.68,0-1.4,0.21-1.87,0.51l-0.34-1.14     c0.51-0.31,1.41-0.61,2.51-0.61c2.22,0,2.86,1.41,2.86,2.92v2.51c0,0.63,0.03,1.24,0.1,1.67H114.67z M114.44,74.93     c-1.24-0.03-2.42,0.24-2.42,1.3c0,0.68,0.44,1,1,1c0.7,0,1.21-0.46,1.37-0.95c0.04-0.13,0.06-0.27,0.06-0.38V74.93z" />
			<rect x="121.34" y="68.72" class="st5" width="1.75" height="9.6" />
			<path class="st5" d="M125.27,73.45c0-0.8-0.01-1.47-0.06-2.07h1.51l0.07,1.03h0.04c0.34-0.54,0.97-1.18,2.14-1.18     c0.91,0,1.62,0.51,1.92,1.28h0.03c0.24-0.38,0.53-0.67,0.85-0.87c0.38-0.27,0.83-0.41,1.4-0.41c1.16,0,2.32,0.78,2.32,3.01v4.09     h-1.71v-3.83c0-1.15-0.4-1.84-1.24-1.84c-0.6,0-1.04,0.43-1.23,0.93c-0.04,0.17-0.09,0.38-0.09,0.58v4.16h-1.71V74.3     c0-0.97-0.38-1.65-1.2-1.65c-0.65,0-1.1,0.51-1.25,1c-0.07,0.17-0.1,0.37-0.1,0.57v4.1h-1.71V73.45z" />
			<path class="st5" d="M141.41,78.32l-0.11-0.77h-0.04c-0.43,0.54-1.15,0.93-2.05,0.93c-1.4,0-2.18-1.01-2.18-2.07     c0-1.75,1.55-2.64,4.12-2.62v-0.11c0-0.46-0.19-1.21-1.41-1.21c-0.68,0-1.39,0.21-1.87,0.51l-0.34-1.14     c0.51-0.31,1.41-0.61,2.51-0.61c2.22,0,2.86,1.41,2.86,2.92v2.51c0,0.63,0.03,1.24,0.1,1.67H141.41z M141.18,74.93     c-1.24-0.03-2.42,0.24-2.42,1.3c0,0.68,0.44,1,1,1c0.7,0,1.21-0.46,1.37-0.95c0.04-0.13,0.06-0.27,0.06-0.38V74.93z" />
			<path class="st5" d="M149.99,78.1c-0.37,0.17-1.1,0.36-1.97,0.36c-2.17,0-3.58-1.38-3.58-3.53c0-2.08,1.43-3.7,3.86-3.7     c0.64,0,1.3,0.14,1.7,0.33l-0.31,1.31c-0.28-0.13-0.7-0.27-1.32-0.27c-1.34,0-2.14,0.98-2.12,2.25c0,1.42,0.93,2.24,2.12,2.24     c0.61,0,1.04-0.13,1.38-0.27L149.99,78.1z" />
			<path class="st5" d="M157.66,76.24c0,0.83,0.03,1.51,0.06,2.08h-1.54l-0.08-1.05h-0.03c-0.3,0.5-0.98,1.21-2.22,1.21     c-1.27,0-2.42-0.76-2.42-3.02v-4.07h1.75v3.78c0,1.15,0.37,1.89,1.3,1.89c0.7,0,1.15-0.5,1.34-0.94c0.06-0.16,0.1-0.34,0.1-0.54     v-4.19h1.75V76.24z" />
			<rect x="159.71" y="68.2" class="st5" width="1.77" height="10.12" />
			<path class="st5" d="M167.43,78.32l-0.11-0.77h-0.04c-0.43,0.54-1.15,0.93-2.05,0.93c-1.39,0-2.18-1.01-2.18-2.07     c0-1.75,1.55-2.64,4.12-2.62v-0.11c0-0.46-0.19-1.21-1.41-1.21c-0.68,0-1.39,0.21-1.87,0.51l-0.34-1.14     c0.51-0.31,1.41-0.61,2.51-0.61c2.22,0,2.86,1.41,2.86,2.92v2.51c0,0.63,0.03,1.24,0.1,1.67H167.43z M167.2,74.93     c-1.24-0.03-2.42,0.24-2.42,1.3c0,0.68,0.44,1,1,1c0.7,0,1.21-0.46,1.37-0.95c0.04-0.13,0.06-0.27,0.06-0.38V74.93z" />
			<path class="st5" d="M177.31,68.2v8.16c0,0.71,0.03,1.48,0.06,1.95h-1.57l-0.07-1.1h-0.03c-0.41,0.77-1.25,1.25-2.27,1.25     c-1.65,0-2.96-1.41-2.96-3.55c-0.01-2.32,1.44-3.7,3.1-3.7c0.96,0,1.64,0.4,1.95,0.91h0.03V68.2H177.31z M175.56,74.27     c0-0.14-0.01-0.31-0.04-0.46c-0.16-0.68-0.71-1.24-1.51-1.24c-1.13,0-1.75,1-1.75,2.29c0,1.27,0.63,2.19,1.74,2.19     c0.71,0,1.34-0.48,1.51-1.24c0.04-0.16,0.06-0.33,0.06-0.51V74.27z" />
			<path class="st5" d="M183.25,78.32l-0.11-0.77h-0.04c-0.43,0.54-1.15,0.93-2.05,0.93c-1.4,0-2.18-1.01-2.18-2.07     c0-1.75,1.55-2.64,4.12-2.62v-0.11c0-0.46-0.19-1.21-1.41-1.21c-0.68,0-1.4,0.21-1.87,0.51l-0.34-1.14     c0.51-0.31,1.41-0.61,2.51-0.61c2.22,0,2.86,1.41,2.86,2.92v2.51c0,0.63,0.03,1.24,0.1,1.67H183.25z M183.02,74.93     c-1.24-0.03-2.42,0.24-2.42,1.3c0,0.68,0.44,1,1,1c0.7,0,1.21-0.46,1.37-0.95c0.04-0.13,0.06-0.27,0.06-0.38V74.93z" />
			<path class="st5" d="M196.8,78.03c-0.41,0.21-1.32,0.43-2.48,0.43c-3.05,0-4.9-1.91-4.9-4.83c0-3.16,2.19-5.07,5.13-5.07     c1.15,0,1.98,0.24,2.34,0.43l-0.39,1.4c-0.46-0.2-1.08-0.37-1.88-0.37c-1.95,0-3.36,1.23-3.36,3.53c0,2.11,1.24,3.46,3.35,3.46     c0.71,0,1.45-0.14,1.91-0.36L196.8,78.03z" />
			<path class="st5" d="M204.74,74.79c0,2.55-1.8,3.69-3.56,3.69c-1.97,0-3.48-1.35-3.48-3.58c0-2.28,1.5-3.68,3.59-3.68     C203.36,71.22,204.74,72.68,204.74,74.79 M199.52,74.86c0,1.34,0.65,2.35,1.72,2.35c1,0,1.7-0.98,1.7-2.38     c0-1.08-0.48-2.32-1.68-2.32C200.01,72.51,199.52,73.7,199.52,74.86" />
			<path class="st5" d="M206.34,73.45c0-0.8-0.01-1.47-0.06-2.07h1.54l0.08,1.04h0.04c0.3-0.54,1.05-1.2,2.21-1.2     c1.21,0,2.46,0.78,2.46,2.98v4.12h-1.75V74.4c0-1-0.37-1.75-1.32-1.75c-0.7,0-1.18,0.5-1.37,1.03c-0.06,0.16-0.07,0.37-0.07,0.57     v4.07h-1.77V73.45z" />
			<path class="st5" d="M219.74,78.1c-0.37,0.17-1.1,0.36-1.97,0.36c-2.17,0-3.58-1.38-3.58-3.53c0-2.08,1.43-3.7,3.86-3.7     c0.64,0,1.3,0.14,1.7,0.33l-0.32,1.31c-0.28-0.13-0.7-0.27-1.32-0.27c-1.34,0-2.14,0.98-2.12,2.25c0,1.42,0.93,2.24,2.12,2.24     c0.61,0,1.04-0.13,1.38-0.27L219.74,78.1z" />
			<path class="st5" d="M222.3,75.34c0.04,1.25,1.02,1.8,2.14,1.8c0.81,0,1.39-0.11,1.92-0.31l0.26,1.21     c-0.6,0.24-1.43,0.43-2.42,0.43c-2.25,0-3.58-1.38-3.58-3.5c0-1.92,1.17-3.73,3.39-3.73c2.25,0,2.99,1.85,2.99,3.38     c0,0.33-0.03,0.58-0.06,0.74H222.3z M225.35,74.12c0.01-0.64-0.27-1.69-1.44-1.69c-1.08,0-1.54,0.98-1.61,1.69H225.35z" />
			<path class="st5" d="M230.44,69.44c0,0.53-0.39,0.94-1,0.94c-0.58,0-0.97-0.41-0.97-0.94c0-0.54,0.4-0.95,0.98-0.95     C230.05,68.49,230.42,68.9,230.44,69.44 M228.57,71.38h1.77v6.94h-1.77V71.38z" />
			<path class="st5" d="M237.47,78.1c-0.31,0.16-0.93,0.34-1.69,0.36l-0.3,0.53c0.53,0.11,1.01,0.47,1.01,1.1     c0,0.94-0.81,1.27-1.6,1.27c-0.38,0-0.83-0.09-1.11-0.27l0.24-0.77c0.21,0.13,0.51,0.2,0.78,0.2c0.3,0,0.57-0.1,0.57-0.4     c-0.01-0.33-0.39-0.48-1.13-0.56l0.59-1.15c-1.78-0.24-2.91-1.57-2.91-3.48c0-2.08,1.43-3.7,3.86-3.7c0.64,0,1.3,0.14,1.7,0.33     l-0.31,1.31c-0.28-0.13-0.7-0.27-1.32-0.27c-1.34,0-2.14,0.98-2.12,2.25c0,1.42,0.93,2.24,2.12,2.24c0.6,0,1.04-0.13,1.38-0.27     L237.47,78.1z" />
			<path class="st5" d="M242.83,78.32l-0.11-0.77h-0.04c-0.43,0.54-1.15,0.93-2.05,0.93c-1.39,0-2.18-1.01-2.18-2.07     c0-1.75,1.55-2.64,4.12-2.62v-0.11c0-0.46-0.19-1.21-1.41-1.21c-0.68,0-1.4,0.21-1.87,0.51l-0.34-1.14     c0.51-0.31,1.41-0.61,2.51-0.61c2.22,0,2.86,1.41,2.86,2.92v2.51c0,0.63,0.03,1.24,0.1,1.67H242.83z M239.61,70.31     c-0.04-1.08,0.4-1.69,1.07-1.69c0.34,0,0.61,0.14,0.91,0.3c0.23,0.13,0.43,0.26,0.61,0.26c0.21,0,0.34-0.13,0.37-0.61h0.85     c0.03,1.14-0.37,1.65-1.08,1.65c-0.36,0-0.64-0.14-0.94-0.3c-0.26-0.16-0.4-0.24-0.57-0.24c-0.21,0-0.33,0.23-0.36,0.64H239.61z      M242.6,74.93c-1.24-0.03-2.42,0.24-2.42,1.3c0,0.68,0.44,1,1,1c0.7,0,1.21-0.46,1.37-0.95c0.04-0.13,0.06-0.27,0.06-0.38V74.93z     " />
			<path class="st5" d="M252.91,74.79c0,2.55-1.79,3.69-3.56,3.69c-1.97,0-3.48-1.35-3.48-3.58c0-2.28,1.5-3.68,3.59-3.68     C251.53,71.22,252.91,72.68,252.91,74.79 M247.68,74.86c0,1.34,0.66,2.35,1.72,2.35c1,0,1.7-0.98,1.7-2.38     c0-1.08-0.48-2.32-1.68-2.32C248.18,72.51,247.68,73.7,247.68,74.86" />
		</g>
	</g>
</g>
</svg>