<!-- Generator: Adobe Illustrator 25.2.3, SVG Export Plug-In . SVG Version: 6.00 Build 0)  -->
<svg version="1.1" id="Camada_1" xmlns="http://www.w3.org/2000/svg" xmlns:xlink="http://www.w3.org/1999/xlink" x="0px" y="0px" viewBox="0 0 100 100" style="enable-background:new 0 0 100 100;" xml:space="preserve" width="100" height="100">
<style type="text/css">
	.st0{fill:#0C4DA2;}
</style>
<g>
	<path class="st0" d="M28.2,75.37c-4.68,0-8.48-3.8-8.48-8.48c0-4.68,3.8-8.48,8.48-8.48c4.68,0,8.48,3.8,8.48,8.48   C36.68,71.56,32.88,75.37,28.2,75.37z M28.2,61.51c-2.96,0-5.37,2.41-5.37,5.37c0,2.96,2.41,5.37,5.37,5.37   c2.96,0,5.37-2.41,5.37-5.37C33.57,63.92,31.16,61.51,28.2,61.51z" />
	<path class="st0" d="M50.23,47.24c-4.71,0-8.55-3.83-8.55-8.55s3.83-8.55,8.55-8.55s8.55,3.83,8.55,8.55S54.94,47.24,50.23,47.24z    M50.23,33.25c-3,0-5.44,2.44-5.44,5.44s2.44,5.44,5.44,5.44s5.44-2.44,5.44-5.44S53.23,33.25,50.23,33.25z" />
	<path class="st0" d="M71.37,68.98c-4.56,0-8.26-3.71-8.26-8.26s3.71-8.26,8.26-8.26s8.26,3.71,8.26,8.26S75.93,68.98,71.37,68.98z    M71.37,55.56c-2.84,0-5.16,2.31-5.16,5.16s2.31,5.16,5.16,5.16s5.16-2.31,5.16-5.16S74.22,55.56,71.37,55.56z" />
	<path class="st0" d="M93.4,40.68c-4.5,0-8.15-3.66-8.15-8.15s3.66-8.15,8.15-8.15s8.15,3.66,8.15,8.15S97.9,40.68,93.4,40.68z    M93.4,27.48c-2.78,0-5.05,2.26-5.05,5.05s2.26,5.05,5.05,5.05s5.05-2.26,5.05-5.05S96.18,27.48,93.4,27.48z" />
	
		<rect x="28.25" y="51.26" transform="matrix(0.592 -0.806 0.806 0.592 -26.5769 53.1392)" class="st0" width="21.89" height="3.11" />
	
		<rect x="71.17" y="45.02" transform="matrix(0.5918 -0.8061 0.8061 0.5918 -3.9039 85.4466)" class="st0" width="22.5" height="3.11" />
	
		<rect x="59.34" y="41.38" transform="matrix(0.7476 -0.6641 0.6641 0.7476 -17.7126 53.0116)" class="st0" width="3.11" height="16.86" />
	<polygon class="st0" points="94.97,90.03 7.08,90.03 7.08,3.01 10.19,3.01 10.19,86.92 94.97,86.92  " />
	<g>
		<rect x="-0.09" y="43.45" class="st0" width="8.81" height="3.11" />
		<rect x="-0.09" y="69.89" class="st0" width="8.81" height="3.11" />
		<rect x="-0.09" y="17.02" class="st0" width="8.81" height="3.11" />
	</g>
	<g>
		<rect x="50.34" y="88.18" class="st0" width="3.11" height="8.81" />
		<rect x="76.77" y="88.18" class="st0" width="3.11" height="8.81" />
		<rect x="23.91" y="88.18" class="st0" width="3.11" height="8.81" />
	</g>
</g>
</svg>